<?xml version="1.0" standalone="no"?>
<!DOCTYPE svg PUBLIC "-//W3C//DTD SVG 20010904//EN"
 "http://www.w3.org/TR/2001/REC-SVG-20010904/DTD/svg10.dtd">
<svg version="1.0" xmlns="http://www.w3.org/2000/svg"
 width="750.000000pt" height="500.000000pt" viewBox="0 0 750.000000 500.000000"
 preserveAspectRatio="xMidYMid meet">

<g transform="translate(0.000000,500.000000) scale(0.100000,-0.100000)"
fill="#000000" stroke="none">
<path d="M4735 4540 c-344 -38 -620 -192 -806 -450 -55 -77 -106 -171 -155
-288 -28 -68 -54 -124 -57 -125 -3 -1 -40 48 -82 108 -168 242 -335 363 -600
437 -101 28 -312 35 -431 14 -323 -56 -564 -209 -731 -463 -168 -257 -217
-533 -154 -861 32 -167 118 -389 158 -410 11 -6 94 -16 186 -23 188 -14 304
-5 402 32 57 21 150 96 160 129 4 11 -1 79 -10 152 -25 195 -23 474 3 601 36
170 96 271 187 313 62 29 87 30 134 3 97 -54 136 -197 112 -410 -27 -233 -99
-438 -193 -544 -35 -40 -34 -48 8 -264 56 -279 128 -502 166 -509 31 -6 72
106 97 268 29 186 41 337 35 436 -6 85 -4 111 10 149 23 59 57 85 113 85 41 0
43 1 37 24 -7 30 13 103 39 140 23 32 88 65 129 66 105 1 174 -111 201 -326
l12 -92 38 13 c54 18 85 50 118 120 22 45 29 75 29 118 0 43 5 62 19 76 25 25
83 36 124 24 37 -10 41 -21 57 -153 34 -282 105 -470 177 -470 67 0 128 127
140 292 6 82 5 88 -13 88 -83 0 -184 82 -239 193 -47 97 -68 185 -69 288 0 72
4 93 26 140 58 118 175 120 243 5 56 -96 99 -265 112 -438 3 -47 9 -92 13 -98
9 -15 63 7 108 45 57 48 79 99 85 196 10 174 99 279 239 279 20 0 44 -3 53 -6
23 -9 45 -58 45 -102 0 -85 -64 -235 -126 -298 l-37 -36 12 -57 c33 -150 82
-289 111 -316 24 -22 56 -12 74 23 8 15 28 81 45 147 41 158 102 281 178 359
121 124 297 206 496 231 l57 7 0 88 c0 283 -143 614 -345 798 -116 107 -273
193 -407 226 -65 16 -217 37 -248 35 -8 -1 -46 -5 -85 -9z"/>
<path d="M2898 3613 c-41 -45 -64 -160 -79 -403 -7 -110 -9 -230 -4 -295 l7
-110 29 35 c72 86 128 306 135 535 4 127 2 158 -13 200 -20 55 -47 69 -75 38z"/>
<path d="M4198 3470 c-41 -32 -51 -71 -45 -168 8 -134 56 -259 129 -338 41
-45 104 -72 122 -54 12 12 -9 217 -34 339 -31 145 -82 241 -129 241 -10 0 -30
-9 -43 -20z"/>
<path d="M4915 3358 c-29 -13 -62 -66 -74 -118 -13 -57 -14 -160 -1 -160 34 0
108 141 117 222 6 60 -4 73 -42 56z"/>
<path d="M5701 3325 c-168 -37 -279 -93 -376 -190 -82 -81 -121 -154 -160
-295 -55 -199 -65 -227 -94 -268 -40 -54 -95 -73 -146 -49 -67 32 -139 163
-197 355 -18 59 -34 109 -35 111 -2 3 -22 -15 -45 -38 -37 -39 -125 -91 -155
-91 -7 0 -14 -32 -18 -87 -15 -188 -62 -333 -126 -387 -65 -55 -152 -55 -226
1 -69 53 -146 206 -189 378 -15 58 -19 66 -28 50 -36 -61 -142 -144 -186 -145
-10 0 -23 -26 -39 -75 -42 -133 -127 -204 -245 -205 -71 0 -131 26 -175 75
-35 40 -36 38 -46 -70 -9 -94 -49 -286 -74 -359 -41 -115 -111 -196 -171 -196
-36 0 -104 79 -149 172 -49 101 -99 253 -142 427 l-32 130 -49 -44 c-95 -85
-211 -110 -490 -103 -104 2 -188 1 -188 -3 0 -16 121 -158 196 -229 111 -105
178 -151 429 -290 772 -429 1106 -651 1391 -923 l103 -98 84 128 c107 164 199
281 330 424 162 176 455 462 637 621 325 285 467 452 589 696 78 156 141 390
141 526 0 66 0 66 -27 65 -16 0 -57 -7 -92 -14z"/>
<path d="M3434 3065 c-100 -69 -11 -308 129 -346 21 -5 47 -7 57 -4 17 5 19
13 14 53 -18 161 -42 243 -86 289 -25 27 -82 31 -114 8z"/>
<path d="M3354 2750 c8 -125 57 -229 122 -256 65 -27 124 21 154 127 8 26 6
27 -42 32 -87 11 -155 56 -221 147 -18 25 -18 24 -13 -50z"/>
<path d="M2883 444 c-3 -9 -1 -24 5 -33 33 -45 46 -81 33 -94 -10 -9 -15 -8
-27 7 -14 19 -14 19 -14 -3 0 -19 5 -22 33 -19 43 4 48 39 12 91 -14 21 -25
42 -25 47 0 14 24 12 39 -2 10 -11 11 -10 6 5 -9 22 -53 23 -62 1z"/>
<path d="M2970 448 c0 -7 9 -44 19 -83 19 -74 19 -73 41 15 6 25 13 53 16 63
3 9 1 17 -4 17 -6 0 -13 -23 -17 -52 -8 -55 -18 -50 -29 15 -6 34 -26 53 -26
25z"/>
<path d="M3084 435 c-18 -28 -15 -95 6 -120 19 -23 49 -18 54 8 13 61 13 77 0
77 -8 0 -13 -14 -12 -40 0 -23 -2 -44 -6 -47 -14 -15 -31 21 -31 67 0 57 16
80 40 60 12 -10 15 -10 15 4 0 26 -47 20 -66 -9z"/>
<path d="M3250 380 c0 -73 2 -80 20 -80 33 0 60 35 60 78 0 47 -24 82 -56 82
-23 0 -24 -2 -24 -80z m48 58 c15 -15 16 -82 2 -109 -20 -36 -30 -19 -30 51 0
70 5 81 28 58z"/>
<path d="M3360 456 c0 -2 7 -20 15 -40 14 -32 14 -39 0 -66 -8 -16 -15 -35
-15 -42 1 -7 8 3 16 22 12 27 17 32 24 20 5 -8 10 -23 10 -32 0 -10 7 -18 15
-18 18 0 18 -1 -1 45 -14 35 -14 51 2 102 3 10 -1 8 -9 -6 l-14 -24 -12 21
c-10 19 -31 31 -31 18z"/>
<path d="M3468 380 c-2 -59 0 -80 10 -80 8 0 12 16 12 45 0 33 4 45 15 45 8 0
15 4 15 10 0 5 -7 7 -15 4 -11 -5 -15 1 -15 21 0 22 4 26 20 22 11 -3 20 -1
20 4 0 5 -13 9 -29 9 l-29 0 -4 -80z"/>
<path d="M3628 380 l-3 -80 33 0 c23 0 32 4 32 17 0 13 -3 14 -12 5 -21 -21
-28 -13 -28 28 0 29 4 40 15 40 8 0 15 4 15 10 0 5 -7 7 -15 4 -11 -5 -15 1
-15 21 0 22 4 26 20 22 11 -3 20 -1 20 4 0 5 -13 9 -29 9 l-29 0 -4 -80z"/>
<path d="M3715 380 c0 -59 3 -80 13 -80 7 0 10 5 7 10 -4 6 7 23 24 39 18 17
31 39 31 53 0 29 -28 58 -56 58 -17 0 -19 -8 -19 -80z m45 45 c6 -16 6 -34 0
-50 -15 -41 -30 -29 -30 25 0 54 15 66 30 25z"/>
<path d="M3806 443 c-4 -9 4 -31 20 -54 26 -38 29 -69 6 -77 -6 -2 -16 7 -21
20 -10 23 -10 22 -10 -5 -1 -26 2 -28 32 -25 27 3 33 7 35 31 2 19 -6 42 -23
67 -15 21 -24 44 -20 49 3 6 2 11 -3 11 -6 0 -13 -7 -16 -17z"/>
<path d="M3840 456 c0 -2 7 -9 15 -16 12 -10 15 -10 15 4 0 9 -7 16 -15 16 -8
0 -15 -2 -15 -4z"/>
<path d="M4000 385 c0 -75 -5 -86 -28 -63 -9 9 -12 8 -12 -6 0 -13 7 -17 28
-14 27 3 27 4 30 81 2 48 -1 77 -8 77 -6 0 -10 -30 -10 -75z"/>
<path d="M4060 380 c0 -47 4 -80 10 -80 6 0 10 7 10 16 0 9 11 25 25 36 43 34
26 108 -26 108 -17 0 -19 -8 -19 -80z m50 25 c0 -30 -10 -55 -21 -55 -5 0 -9
23 -9 51 0 45 2 50 15 39 8 -7 15 -23 15 -35z"/>
<path d="M4160 441 c-5 -11 -10 -38 -10 -61 0 -23 5 -50 10 -61 15 -28 49 -24
60 7 14 36 12 74 -3 74 -9 0 -11 -12 -9 -39 4 -41 -13 -64 -29 -40 -11 18 -11
100 0 118 5 8 16 11 25 8 9 -4 16 -2 16 3 0 18 -49 10 -60 -9z"/>
<path d="M4328 380 c-2 -59 0 -80 10 -80 6 0 12 9 12 20 0 11 4 20 9 20 19 0
41 32 41 60 0 33 -23 60 -50 60 -16 0 -19 -10 -22 -80z m48 45 c7 -30 -2 -75
-16 -75 -6 0 -10 23 -10 50 0 53 15 67 26 25z"/>
<path d="M4425 380 c0 -47 4 -80 10 -80 6 0 9 22 7 52 -4 61 8 56 27 -9 6 -24
15 -43 19 -43 4 0 7 36 7 80 0 85 -14 114 -16 33 l-1 -48 -16 48 c-24 71 -37
59 -37 -33z"/>
<path d="M4530 430 c-14 -33 -8 -93 11 -116 18 -22 48 -17 53 9 13 61 13 77 0
77 -8 0 -13 -14 -12 -40 1 -73 -31 -64 -39 12 -6 54 15 90 41 69 14 -11 16
-11 16 3 0 11 -9 16 -29 16 -22 0 -31 -6 -41 -30z"/>
<path d="M3183 373 c9 -2 23 -2 30 0 6 3 -1 5 -18 5 -16 0 -22 -2 -12 -5z"/>
<path d="M3563 373 c9 -2 23 -2 30 0 6 3 -1 5 -18 5 -16 0 -22 -2 -12 -5z"/>
<path d="M3903 373 c9 -2 23 -2 30 0 6 3 -1 5 -18 5 -16 0 -22 -2 -12 -5z"/>
<path d="M4258 373 c6 -2 18 -2 25 0 6 3 1 5 -13 5 -14 0 -19 -2 -12 -5z"/>
</g>
</svg>
