<?xml version="1.0" standalone="no"?>
<!DOCTYPE svg PUBLIC "-//W3C//DTD SVG 20010904//EN"
 "http://www.w3.org/TR/2001/REC-SVG-20010904/DTD/svg10.dtd">
<svg version="1.0" xmlns="http://www.w3.org/2000/svg"
 width="1300.000000pt" height="1300.000000pt" viewBox="0 0 1300.000000 1300.000000"
 preserveAspectRatio="xMidYMid meet">

<g transform="translate(0.000000,1300.000000) scale(0.100000,-0.100000)"
fill="#000000" stroke="none">
<path d="M3795 10954 c-22 -3 -78 -12 -125 -20 -84 -15 -86 -16 -155 -82 l-70
-67 60 63 60 64 -35 -7 c-19 -4 -87 -24 -150 -45 -542 -182 -976 -576 -1250
-1135 -62 -127 -160 -372 -160 -402 0 -3 8 1 18 8 9 8 8 3 -5 -11 -48 -55
-115 -411 -134 -712 -21 -340 14 -718 102 -1103 57 -247 5 -176 484 -655 l425
-425 314 314 315 314 -25 65 c-66 176 -140 488 -168 710 -18 143 -21 455 -6
582 43 343 172 673 347 884 13 16 22 35 19 42 -3 8 0 11 8 8 8 -3 30 15 52 41
50 62 222 199 318 254 364 208 797 258 1261 146 179 -43 387 -121 571 -213
l81 -41 29 27 28 27 -23 -27 c-14 -16 -23 -30 -20 -31 2 -2 38 -24 79 -47 111
-65 235 -146 323 -211 42 -32 77 -57 77 -54 0 5 -100 180 -138 240 -294 472
-656 860 -1037 1111 -280 184 -576 306 -890 365 -86 17 -158 22 -325 24 -118
2 -233 1 -255 -1z m-355 -177 c0 -2 -17 -19 -37 -38 l-38 -34 34 38 c33 34 41
42 41 34z m-80 -80 c0 -2 -17 -19 -37 -38 l-38 -34 34 38 c33 34 41 42 41 34z
m-80 -80 c0 -2 -17 -19 -37 -38 l-38 -34 34 38 c33 34 41 42 41 34z m-80 -80
c0 -2 -17 -19 -37 -38 l-38 -34 34 38 c33 34 41 42 41 34z m-80 -80 c0 -2 -17
-19 -37 -38 l-38 -34 34 38 c33 34 41 42 41 34z m-263 -257 l28 25 -25 -28
-24 -28 404 -407 405 -407 -406 404 c-277 274 -411 401 -419 396 -9 -6 -11 -4
-5 5 5 8 -29 50 -101 124 l-109 111 112 -110 112 -109 28 24z m183 177 c0 -2
-17 -19 -37 -38 l-38 -34 34 38 c33 34 41 42 41 34z m-80 -80 c0 -2 -17 -19
-37 -38 l-38 -34 34 38 c33 34 41 42 41 34z m-160 -160 c0 -2 -17 -19 -37 -38
l-38 -34 34 38 c33 34 41 42 41 34z m-80 -80 c0 -2 -17 -19 -37 -38 l-38 -34
34 38 c33 34 41 42 41 34z m-80 -80 c0 -2 -17 -19 -37 -38 l-38 -34 34 38 c33
34 41 42 41 34z m-80 -80 c0 -2 -17 -19 -37 -38 l-38 -34 34 38 c33 34 41 42
41 34z m-80 -80 c0 -2 -17 -19 -37 -38 l-38 -34 34 38 c33 34 41 42 41 34z
m-80 -80 c0 -2 -17 -19 -37 -38 l-38 -34 34 38 c33 34 41 42 41 34z m3730 -30
c0 -1 -28 -29 -62 -62 l-63 -60 60 63 c55 58 65 67 65 59z m-3810 -50 c0 -2
-17 -19 -37 -38 l-38 -34 34 38 c33 34 41 42 41 34z m-80 -80 c0 -2 -17 -19
-37 -38 l-38 -34 34 38 c33 34 41 42 41 34z m-80 -80 c0 -2 -17 -19 -37 -38
l-38 -34 34 38 c33 34 41 42 41 34z m-80 -80 c0 -2 -17 -19 -37 -38 l-38 -34
34 38 c33 34 41 42 41 34z"/>
<path d="M9426 10674 c-332 -45 -705 -194 -971 -387 -296 -216 -556 -508 -785
-882 -212 -345 -438 -880 -536 -1270 -3 -11 15 16 39 60 173 316 357 568 621
850 303 325 582 551 820 664 206 99 361 139 568 148 188 8 332 -16 489 -82 35
-14 71 -29 79 -31 10 -3 93 74 232 214 l218 218 261 -261 c153 -153 263 -255
266 -247 3 7 22 39 44 71 36 54 77 90 331 292 20 16 18 19 -88 129 -119 123
-241 219 -379 298 l-90 52 -165 -163 -165 -162 158 161 c130 131 156 163 144
172 -24 20 -226 92 -331 118 -141 34 -284 54 -401 54 l-100 0 250 -252 250
-253 -255 253 -255 252 -75 -1 c-41 -1 -119 -7 -174 -15z"/>
<path d="M9981 9946 l-213 -213 57 -33 c136 -78 298 -234 399 -385 152 -226
238 -461 315 -865 78 -409 85 -475 85 -850 1 -320 -5 -413 -40 -635 -8 -49
-14 -97 -14 -105 0 -8 111 95 246 230 l246 245 63 130 c150 308 265 646 341
993 3 17 1 22 -8 19 -75 -32 -156 -49 -203 -44 -171 17 -240 160 -161 332 33
73 95 137 259 267 102 81 137 114 137 131 0 64 -101 428 -118 427 -4 -1 -54
-39 -112 -86 -58 -47 -135 -99 -172 -117 l-67 -32 112 -115 112 -115 -112 110
-112 109 -93 1 c-107 0 -156 20 -198 81 -27 41 -38 128 -22 186 l10 35 -257
257 c-141 141 -258 256 -261 256 -3 0 -101 -96 -219 -214z"/>
<path d="M9945 8893 c-92 -142 -210 -323 -262 -403 -52 -80 -133 -203 -179
-275 -47 -71 -97 -149 -110 -172 l-25 -42 30 -94 c77 -241 165 -644 196 -905
3 -20 11 -91 19 -157 20 -163 43 -480 52 -709 l7 -188 246 246 246 246 -285
287 -285 288 288 -285 287 -285 139 140 138 140 12 80 c64 428 67 796 11 1182
-21 141 -58 321 -91 443 -53 195 -162 496 -242 668 l-24 52 -168 -257z"/>
<path d="M8515 7336 c-102 -33 -292 -111 -400 -164 -33 -16 -107 -51 -165 -78
-58 -27 -130 -61 -160 -75 l-55 -27 43 -11 c202 -55 447 -180 658 -336 463
-343 753 -885 814 -1522 12 -133 13 -485 0 -613 -5 -52 -7 -96 -6 -98 6 -6
240 271 332 393 385 510 668 1095 813 1675 63 254 72 245 -81 93 l-133 -133
80 -82 80 -83 -83 80 -82 80 -250 -250 -250 -250 -1 -50 -1 -50 -15 34 -14 34
-222 -219 -222 -219 219 221 c193 195 217 224 211 245 -16 50 -138 301 -217
449 -198 368 -417 676 -633 893 -113 114 -110 113 -260 63z"/>
<path d="M10808 7073 l-246 -248 -22 -105 c-22 -108 -77 -311 -105 -389 -8
-24 -14 -46 -12 -47 8 -9 193 267 361 539 58 94 279 497 273 497 -1 0 -113
-111 -249 -247z"/>
<path d="M2041 7170 c85 -267 170 -492 283 -744 77 -172 162 -342 174 -350 5
-3 87 74 183 170 l174 174 -422 422 -422 422 30 -94z"/>
<path d="M3175 6730 l-310 -310 490 -493 490 -492 -492 490 -493 490 -179
-179 -179 -178 85 -152 c316 -563 700 -1086 1174 -1601 731 -791 1646 -1531
2624 -2120 199 -119 461 -265 478 -265 2 0 7 33 10 73 8 84 45 224 76 285 12
23 19 47 16 51 -3 5 -2 11 3 13 4 1 20 24 34 49 90 155 274 353 455 491 208
159 548 350 803 452 254 101 533 334 690 576 104 161 186 379 215 570 52 342
-28 750 -173 881 -42 39 -51 54 -71 124 -217 741 -854 1305 -1573 1392 -91 11
-300 8 -393 -6 -67 -10 -85 -16 -115 -44 -27 -25 -29 -26 -11 -4 14 15 19 27
13 27 -57 0 -353 -123 -433 -181 l-31 -22 68 -68 68 -69 26 22 25 22 -22 -24
-23 -24 28 -31 27 -30 -30 27 -31 28 -371 -373 -371 -372 -18 -105 c-23 -129
-26 -464 -5 -580 76 -437 272 -822 571 -1120 84 -85 200 -182 272 -230 21 -14
38 -28 38 -32 0 -5 -66 -8 -147 -8 l-148 1 -96 72 c-299 224 -717 573 -953
797 -32 30 -64 54 -72 54 -7 -1 -12 2 -11 6 1 5 -98 111 -220 237 -239 244
-356 374 -524 579 -411 500 -732 1023 -921 1499 -22 55 -43 103 -47 107 -3 4
-146 -132 -316 -302z m3625 57 c0 -2 -17 -19 -37 -38 l-38 -34 34 38 c33 34
41 42 41 34z m-80 -80 c0 -2 -17 -19 -37 -38 l-38 -34 34 38 c33 34 41 42 41
34z m-80 -80 c0 -2 -17 -19 -37 -38 l-38 -34 34 38 c33 34 41 42 41 34z m-25
-217 c10 -11 16 -20 13 -20 -3 0 -13 9 -23 20 -10 11 -16 20 -13 20 3 0 13 -9
23 -20z m80 -80 c10 -11 16 -20 13 -20 -3 0 -13 9 -23 20 -10 11 -16 20 -13
20 3 0 13 -9 23 -20z m75 -75 c13 -14 21 -25 18 -25 -2 0 -15 11 -28 25 -13
14 -21 25 -18 25 2 0 15 -11 28 -25z m724 -54 c435 -117 775 -494 871 -966 20
-96 23 -300 6 -400 -7 -38 -26 -109 -42 -158 -17 -48 -27 -92 -23 -99 4 -6 3
-8 -2 -5 -6 3 -19 -15 -31 -41 -12 -26 -38 -66 -58 -89 -20 -24 -33 -47 -30
-53 4 -6 3 -9 -2 -8 -4 2 -33 -22 -63 -52 -125 -125 -225 -184 -397 -236 -78
-24 -105 -27 -238 -27 -130 0 -163 3 -247 26 -298 79 -557 281 -724 563 -262
444 -220 993 102 1318 56 57 151 129 208 158 l38 19 -23 27 -24 27 27 -24 27
-23 68 23 c126 42 171 48 328 45 115 -2 169 -8 229 -25z m1394 -1077 c1 -1
-18 -22 -43 -48 -25 -26 -45 -51 -45 -57 0 -5 18 -27 41 -47 l40 -38 -21 -19
-22 -20 -49 52 -50 52 16 32 c9 17 35 51 57 75 34 37 43 42 57 32 9 -7 17 -13
19 -14z m-123 -236 c25 -12 45 -25 45 -28 0 -3 -9 -11 -21 -18 -17 -11 -27
-10 -59 5 -36 17 -41 26 -31 61 2 7 25 0 66 -20z m-92 -160 c-21 -23 -30 -23
-43 2 -8 14 -8 26 1 41 l11 21 24 -23 c22 -21 23 -24 7 -41z m-83 -58 c0 -11
-30 -50 -66 -87 -37 -38 -59 -57 -50 -43 9 14 25 39 36 55 11 17 20 26 20 20
1 -12 24 25 25 40 4 41 35 54 35 15z m-519 -541 c-11 -12 -24 -19 -28 -15 -5
4 3 16 16 27 31 25 39 17 12 -12z m-36 -30 c0 -8 -8 -13 -17 -13 -10 1 -15 -2
-13 -7 7 -11 -26 -49 -37 -43 -5 3 -5 10 -2 16 5 7 2 8 -5 4 -7 -5 -10 -14 -7
-21 3 -8 -1 -18 -8 -24 -11 -9 -13 -5 -10 21 4 33 29 62 46 52 5 -3 7 0 6 8
-2 7 5 12 14 12 10 -1 15 3 12 8 -4 6 -1 9 7 6 8 -3 14 -11 14 -19z m-2545
-284 c19 -19 32 -35 29 -35 -3 0 -20 16 -39 35 -19 19 -32 35 -29 35 3 0 20
-16 39 -35z m80 -80 c19 -19 32 -35 29 -35 -3 0 -20 16 -39 35 -19 19 -32 35
-29 35 3 0 20 -16 39 -35z m1940 22 c0 -2 -17 -19 -37 -38 l-38 -34 34 38 c33
34 41 42 41 34z m-1875 -87 c10 -11 16 -20 13 -20 -3 0 -13 9 -23 20 -10 11
-16 20 -13 20 3 0 13 -9 23 -20z m1795 7 c0 -2 -17 -19 -37 -38 l-38 -34 34
38 c33 34 41 42 41 34z m-1715 -87 c10 -11 16 -20 13 -20 -3 0 -13 9 -23 20
-10 11 -16 20 -13 20 3 0 13 -9 23 -20z m1635 7 c0 -2 -17 -19 -37 -38 l-38
-34 34 38 c33 34 41 42 41 34z m-1555 -87 c10 -11 16 -20 13 -20 -3 0 -13 9
-23 20 -10 11 -16 20 -13 20 3 0 13 -9 23 -20z m1475 7 c0 -2 -17 -19 -37 -38
l-38 -34 34 38 c33 34 41 42 41 34z m-1395 -87 c10 -11 16 -20 13 -20 -3 0
-13 9 -23 20 -10 11 -16 20 -13 20 3 0 13 -9 23 -20z m1315 7 c0 -2 -17 -19
-37 -38 l-38 -34 34 38 c33 34 41 42 41 34z m-1235 -87 c10 -11 16 -20 13 -20
-3 0 -13 9 -23 20 -10 11 -16 20 -13 20 3 0 13 -9 23 -20z m1155 7 c0 -2 -17
-19 -37 -38 l-38 -34 34 38 c33 34 41 42 41 34z m-1075 -87 c10 -11 16 -20 13
-20 -3 0 -13 9 -23 20 -10 11 -16 20 -13 20 3 0 13 -9 23 -20z m995 7 c0 -2
-17 -19 -37 -38 l-38 -34 34 38 c33 34 41 42 41 34z m-915 -87 c10 -11 16 -20
13 -20 -3 0 -13 9 -23 20 -10 11 -16 20 -13 20 3 0 13 -9 23 -20z m835 7 c0
-2 -17 -19 -37 -38 l-38 -34 34 38 c33 34 41 42 41 34z m-755 -87 c10 -11 16
-20 13 -20 -3 0 -13 9 -23 20 -10 11 -16 20 -13 20 3 0 13 -9 23 -20z m675 7
c0 -2 -17 -19 -37 -38 l-38 -34 34 38 c33 34 41 42 41 34z m-580 -102 c19 -19
32 -35 29 -35 -3 0 -20 16 -39 35 -19 19 -32 35 -29 35 3 0 20 -16 39 -35z
m500 22 c0 -2 -17 -19 -37 -38 l-38 -34 34 38 c33 34 41 42 41 34z m-420 -102
c19 -19 32 -35 29 -35 -3 0 -20 16 -39 35 -19 19 -32 35 -29 35 3 0 20 -16 39
-35z m340 22 c0 -2 -17 -19 -37 -38 l-38 -34 34 38 c33 34 41 42 41 34z m-245
-117 c27 -27 47 -50 44 -50 -3 0 -27 23 -54 50 -27 28 -47 50 -44 50 3 0 27
-22 54 -50z m117 -13 c-47 -48 -51 -54 -37 -70 14 -16 14 -16 -2 -2 -15 13
-20 12 -43 -7 -14 -13 9 12 50 55 41 42 77 77 79 77 3 0 -18 -24 -47 -53z m13
-117 c10 -11 16 -20 13 -20 -3 0 -13 9 -23 20 -10 11 -16 20 -13 20 3 0 13 -9
23 -20z m-125 7 c0 -2 -17 -19 -37 -38 l-38 -34 34 38 c33 34 41 42 41 34z
m205 -87 c10 -11 16 -20 13 -20 -3 0 -13 9 -23 20 -10 11 -16 20 -13 20 3 0
13 -9 23 -20z m-285 7 c0 -2 -17 -19 -37 -38 l-38 -34 34 38 c33 34 41 42 41
34z m356 -79 l29 -33 -32 29 c-18 17 -33 31 -33 33 0 8 8 1 36 -29z m-436 -1
c0 -2 -17 -19 -37 -38 l-38 -34 34 38 c33 34 41 42 41 34z m525 -87 c10 -11
16 -20 13 -20 -3 0 -13 9 -23 20 -10 11 -16 20 -13 20 3 0 13 -9 23 -20z
m-605 7 c0 -1 -28 -29 -62 -62 l-63 -60 60 63 c55 58 65 67 65 59z m670 -72
c19 -19 32 -35 29 -35 -3 0 -20 16 -39 35 -19 19 -32 35 -29 35 3 0 20 -16 39
-35z"/>
<path d="M6289 6582 c-229 -182 -416 -467 -495 -757 -13 -49 -12 -48 351 315
l365 365 -67 67 c-37 38 -70 68 -74 68 -3 0 -40 -26 -80 -58z"/>
</g>
</svg>
